<svg width="256" height="256" viewBox="0 0 256 256" fill="none" xmlns="http://www.w3.org/2000/svg">
<rect width="256" height="256" rx="60" fill="#242938"/>
<g transform="translate(41.28 28) scale(0.390625)">
<g fill-rule="evenodd" fill="none" stroke-width="0">
<path fill="#A1C535" d="M222 0v99L86 178 0 128z"/>
<path fill="#ADD439" d="M444 128l-86 50-136-79V0z"/>
<path fill="#1B6AC6" d="M444 384l-86-50V178l86-50z"/>
<path fill="#2E90E8" d="M222 512v-99l136-79 86 50z"/>
<path fill="#EA205E" d="M0 384l86-50 136 79v99z"/>
<path fill="#A5073E" d="M0 128l86 50v156L0 384z"/>
<path fill="#F1F6E2" d="M86 178l136-79 136 79-136 78z"/>
<path fill="#CEDBE6" d="M222 256l136-78v156l-136 79z"/>
<path fill="#FFF" d="M86 178l136 78v157L86 334z"/>
</g>
</g>
</svg>
